<svg width="36" height="36" viewBox="0 0 36 36" fill="none" xmlns="http://www.w3.org/2000/svg">
  <circle cx="18" cy="18" r="18" fill="#F0F0F0"/>
  <path d="M18 9C13.0294 9 9 13.0294 9 18C9 22.9706 13.0294 27 18 27C22.9706 27 27 22.9706 27 18C27 13.0294 22.9706 9 18 9ZM21.9853 14.6912L19.7206 19.9235L17.0824 16.2647L14.0147 21.3088H20.4265L21.9853 14.6912ZM14.4706 15.1471C14.4706 14.2941 15.1765 13.5882 16.0294 13.5882C16.8824 13.5882 17.5882 14.2941 17.5882 15.1471C17.5882 16 16.8824 16.7059 16.0294 16.7059C15.1765 16.7059 14.4706 16 14.4706 15.1471Z" fill="#8E8E8E"/>
</svg> 