<svg
  width="24"
  height="24"
  viewBox="0 0 24 24"
  fill="none"
  xmlns="http://www.w3.org/2000/svg"
>
  <g>
    <path
      d="M2 12C2 10.6868 2.2587 9.3864 2.7612 8.1732C3.2638 6.9599 4.0003 5.8575 4.9289 4.9289C5.8575 4.0003 6.9599 3.2638 8.1732 2.7612C9.3864 2.2587 10.6868 2 12 2C13.3132 2 14.6136 2.2587 15.8268 2.7612C17.0401 3.2638 18.1425 4.0003 19.0711 4.9289C19.9996 5.8575 20.7362 6.9599 21.2388 8.1732C21.7413 9.3864 22 10.6868 22 12C22 13.3132 21.7413 14.6136 21.2388 15.8268C20.7362 17.0401 19.9996 18.1425 19.0711 19.0711C18.1425 19.9997 17.0401 20.7363 15.8268 21.2388C14.6136 21.7413 13.3132 22 12 22C10.6868 22 9.3864 21.7413 8.1732 21.2388C6.9599 20.7363 5.8575 19.9997 4.9289 19.0711C4.0003 18.1425 3.2638 17.0401 2.7612 15.8268C2.2587 14.6136 2 13.3132 2 12Z"
      stroke="currentColor"
      strokeWidth="1.5"
    />
    <path
      d="M8 12C8 10.6868 8.1035 9.3864 8.3045 8.1732C8.5055 6.9599 8.8001 5.8575 9.1716 4.9289C9.543 4.0003 9.984 3.2638 10.4693 2.7612C10.9546 2.2587 11.4747 2 12 2C12.5253 2 13.0454 2.2587 13.5307 2.7612C14.016 3.2638 14.457 4.0003 14.8284 4.9289C15.1999 5.8575 15.4945 6.9599 15.6955 8.1732C15.8965 9.3864 16 10.6868 16 12C16 13.3132 15.8965 14.6136 15.6955 15.8268C15.4945 17.0401 15.1999 18.1425 14.8284 19.0711C14.457 19.9997 14.016 20.7363 13.5307 21.2388C13.0454 21.7413 12.5253 22 12 22C11.4747 22 10.9546 21.7413 10.4693 21.2388C9.984 20.7363 9.543 19.9997 9.1716 19.0711C8.8001 18.1425 8.5055 17.0401 8.3045 15.8268C8.1035 14.6136 8 13.3132 8 12Z"
      stroke="currentColor"
      strokeWidth="1.5"
    />
    <path d="M22 12L2 12" stroke="currentColor" strokeWidth="1.5" strokeLinecap="round" />
  </g>
</svg>
