<svg width="25" height="25" viewBox="0 0 25 25" fill="none" xmlns="http://www.w3.org/2000/svg">
<path d="M6.03498 12.5L2.55459 3.55042C2.31236 2.92753 2.91973 2.33186 3.52056 2.54359L3.61525 2.58385L22.0719 11.8122C22.6033 12.0779 22.6365 12.8054 22.1715 13.1288L22.0719 13.1878L3.61525 22.4161C3.01748 22.715 2.36811 22.1654 2.52328 21.5476L2.55459 21.4496L6.03498 12.5L2.55459 3.55042L6.03498 12.5ZM4.7107 4.85117L7.38588 11.7304L14.1816 11.731C14.5709 11.731 14.8927 12.0203 14.9436 12.3956L14.9506 12.5C14.9506 12.8893 14.6613 13.2111 14.2859 13.262L14.1816 13.269L7.38588 13.2684L4.7107 20.1488L20.0084 12.5L4.7107 4.85117Z" fill="white"/>
</svg>
