<svg width="22" height="22" viewBox="0 0 22 22" fill="none" xmlns="http://www.w3.org/2000/svg">
<path d="M6.92416 15.5661C7.22279 15.7775 7.57995 15.8904 7.94584 15.8892V15.8843C8.29085 15.885 8.62848 15.7844 8.91681 15.595C9.20514 15.4055 9.43147 15.1355 9.5677 14.8186L10.3169 12.5404C10.4899 12.0244 10.7806 11.5556 11.1661 11.1713C11.5515 10.7869 12.0211 10.4975 12.5376 10.3259L14.7107 9.61947C15.0607 9.49649 15.3631 9.26625 15.5747 8.96152C15.7863 8.65678 15.8964 8.29307 15.8894 7.92213C15.8824 7.55119 15.7585 7.19192 15.5355 6.89543C15.3124 6.59895 15.0016 6.38035 14.6471 6.27074L12.5022 5.5741C11.9833 5.40146 11.5119 5.11018 11.1253 4.72341C10.7387 4.33664 10.4477 3.86504 10.2753 3.3461L9.56892 1.17431C9.44572 0.828405 9.21783 0.529465 8.91692 0.319026C8.61601 0.108587 8.25702 -0.00289938 7.88984 5.73244e-05C7.52265 0.00301403 7.16551 0.120268 6.86802 0.335525C6.57054 0.550783 6.3475 0.853354 6.22989 1.2012L5.51734 3.39132C5.34552 3.89517 5.06154 4.35344 4.6868 4.73155C4.31206 5.10967 3.85636 5.39776 3.35406 5.5741L1.18222 6.27196C0.923877 6.36231 0.690086 6.5115 0.499326 6.70775C0.308565 6.904 0.166062 7.14193 0.0830787 7.40273C9.55976e-05 7.66352 -0.0210937 7.94005 0.0211849 8.21044C0.0634639 8.48084 0.168052 8.7377 0.326684 8.96072C0.542879 9.26501 0.849522 9.49339 1.203 9.61336L3.34673 10.3088C3.86693 10.4828 4.33939 10.7757 4.72658 11.1643C4.83055 11.2675 4.92771 11.3773 5.01747 11.493C5.2609 11.8081 5.44895 12.1623 5.57357 12.5404L6.27999 14.7098C6.40034 15.0553 6.62554 15.3547 6.92416 15.5661ZM6.46699 10.3723C6.33071 10.1942 6.18249 10.0256 6.02333 9.86757H6.027C5.43683 9.27695 4.71704 8.83212 3.92482 8.56841L1.96931 7.94755L3.93827 7.30713C4.71746 7.03735 5.42417 6.59201 6.00378 6.00553C6.58086 5.41532 7.01597 4.70146 7.27608 3.91807L7.90551 1.9846L8.53616 3.92418C8.79941 4.71487 9.24384 5.43309 9.83397 6.02151C10.4241 6.60994 11.1436 7.05228 11.9351 7.31324L13.9138 7.95121L11.9718 8.58063C11.1817 8.84323 10.4639 9.28654 9.87534 9.87531C9.28677 10.4641 8.84371 11.1821 8.58139 11.9721L7.95195 13.9056L7.32253 11.9685C7.13036 11.3916 6.84101 10.8518 6.46699 10.3723ZM16.2943 21.7348C16.0614 21.5688 15.8862 21.3342 15.7932 21.0638L15.3923 19.8331C15.3143 19.5991 15.1834 19.3862 15.0097 19.211C14.8356 19.0364 14.623 18.9049 14.3889 18.8273L13.1777 18.4325C12.8961 18.338 12.6517 18.1566 12.4798 17.9143C12.312 17.6793 12.2222 17.3976 12.2231 17.1089C12.2235 16.8183 12.3145 16.535 12.4835 16.2986C12.6512 16.0609 12.89 15.8825 13.1655 15.789L14.395 15.3905C14.6236 15.3094 14.8305 15.177 15 15.0035C15.1695 14.83 15.297 14.62 15.3727 14.3896L15.7687 13.1772C15.8619 12.9031 16.0379 12.6648 16.2724 12.4951C16.5069 12.3254 16.7883 12.2327 17.0778 12.2299C17.3672 12.2271 17.6504 12.3143 17.8882 12.4794C18.1259 12.6445 18.3065 12.8793 18.405 13.1515L18.8071 14.3908C18.8858 14.6231 19.0173 14.834 19.1912 15.0071C19.365 15.1801 19.5766 15.3105 19.8093 15.3881L21.0217 15.7828C21.3012 15.8703 21.5461 16.0434 21.7216 16.2778C21.8972 16.5122 21.9945 16.7959 21.9998 17.0887C22.005 17.3814 21.918 17.6684 21.751 17.909C21.584 18.1495 21.3455 18.3314 21.0694 18.4288L19.8301 18.8309C19.5978 18.9101 19.3867 19.0414 19.2129 19.2147C19.0389 19.3892 18.908 19.6017 18.8303 19.8355L18.4368 21.0443C18.342 21.3258 18.1601 21.5698 17.9173 21.7409C17.6827 21.9096 17.4009 22.0003 17.1119 22C16.8182 22 16.5321 21.9072 16.2943 21.7348ZM15.0346 17.1115C15.515 17.2821 15.9509 17.5583 16.3104 17.9196C16.67 18.2811 16.9439 18.7186 17.1119 19.2C17.2817 18.7208 17.5563 18.2856 17.9158 17.9262C18.2753 17.5667 18.7105 17.2921 19.1897 17.1223C18.7027 16.952 18.2603 16.6742 17.8953 16.3096C17.5347 15.9505 17.2594 15.5148 17.0899 15.0349C16.9212 15.5115 16.6491 15.9448 16.2933 16.304C15.9382 16.6625 15.5085 16.9382 15.0346 17.1115Z" fill="white"/>
</svg>
